<?xml version="1.0" encoding="UTF-8"?>
<svg id="Layer_2" data-name="Layer 2" xmlns="http://www.w3.org/2000/svg" viewBox="0 0 861.34 84.98">
  <defs>
    <style>
      .cls-1 {
        fill: #fff;
      }

      .cls-2 {
        fill: #ffc63e;
      }

      .cls-3 {
        fill: #6f559b;
      }
    </style>
  </defs>
  <g id="Layer_1-2" data-name="Layer 1">
    <g>
      <path class="cls-3" d="M84.24,42.47c0,23.48-19.03,42.51-42.51,42.51C-12.69,84.89-14.43,2.56,39.73,0v42.2h44.51c0,.09,0,.18,0,.27"/>
      <polygon class="cls-2" points="138.99 1.86 91.01 84.98 186.98 84.98 138.99 1.86"/>
      <polygon class="cls-1" points="179.61 .29 179.61 1.08 177.37 1.08 177.37 6.95 176.45 6.95 176.45 1.08 174.21 1.08 174.21 .29 179.61 .29"/>
      <path class="cls-1" d="M180.41.29h1.29l1.91,5.63,1.9-5.63h1.28v6.66h-.86c0-1.25,0-4.38.02-5.61l-1.9,5.61h-.89l-1.91-5.61c.02,1.15.03,4.42.02,5.61h-.86V.29Z"/>
      <path class="cls-1" d="M275.15,28.53c-3.92-4.14-9.36-6.53-16.4-6.53-14.56,0-23.53,11.47-23.53,24.61s8.96,24.53,23.53,24.53c6.4,0,12-1.51,15.28-3.66v-17.12h-13.2v-5.02h18.97v25.4c-6.16,3.66-13.44,5.49-21.13,5.49-17.12,0-29.53-12.5-29.53-29.62s12.64-29.62,29.53-29.62c8.96,0,15.69,2.87,20.49,7.56l-4,3.98Z"/>
      <polygon class="cls-1" points="294.51 18.42 300.27 18.42 300.27 42.87 331.16 42.87 331.16 18.42 336.93 18.42 336.93 74.8 331.16 74.8 331.16 48.12 300.27 48.12 300.27 74.8 294.51 74.8 294.51 18.42"/>
      <path class="cls-1" d="M351.57,74.8h-6.32l24.49-56.38h5.6l24.33,56.38h-6.4l-6.24-14.81h-29.29l-6.16,14.81ZM359.89,54.73h24.97l-12.48-29.94-12.48,29.94Z"/>
      <rect class="cls-1" x="407.99" y="18.42" width="5.76" height="56.38"/>
      <path class="cls-1" d="M428.8,18.42h18.8c14.16,0,29.77,9.4,29.77,28.19s-15.61,28.19-29.77,28.19h-18.8V18.42ZM434.56,69.7h11.44c17.05,0,25.29-11.47,25.29-23.09s-8.24-23.09-25.29-23.09h-11.44v46.19Z"/>
      <path class="cls-1" d="M487.06,74.8h-6.32l24.49-56.38h5.6l24.33,56.38h-6.4l-6.24-14.81h-29.29l-6.16,14.81ZM495.38,54.73h24.97l-12.48-29.94-12.48,29.94Z"/>
      <polygon class="cls-1" points="549.24 43.74 549.32 43.74 576.28 18.42 584.53 18.42 555.96 43.98 586.13 74.8 577.65 74.8 549.32 44.78 549.24 44.78 549.24 74.8 543.48 74.8 543.48 18.42 549.24 18.42 549.24 43.74"/>
      <path class="cls-1" d="M610.94,74.8h-6.32l24.49-56.38h5.6l24.33,56.38h-6.4l-6.24-14.81h-29.29l-6.16,14.81ZM619.26,54.73h24.97l-12.48-29.94-12.48,29.94Z"/>
      <polygon class="cls-1" points="678.66 69.7 699.53 69.7 699.53 74.8 674.1 74.8 674.1 18.42 678.66 18.42 678.66 69.7"/>
      <path class="cls-1" d="M732.26,76.23c-16.88,0-29.53-12.5-29.53-29.62s12.64-29.62,29.53-29.62,29.53,12.5,29.53,29.62-12.64,29.62-29.53,29.62M732.26,22c-14.56,0-23.45,11.47-23.45,24.61s8.88,24.53,23.45,24.53,23.45-11.39,23.45-24.53-8.88-24.61-23.45-24.61"/>
      <path class="cls-1" d="M801.24,27.5c-2.4-3.43-6.32-5.65-11.68-5.65s-12.08,3.35-12.08,10.59,6,9,12.32,11.07c8,2.63,16.81,5.18,16.81,16.48s-9.52,16.25-18.48,16.25c-6.88,0-13.76-2.79-17.85-8.36l4.96-3.66c2.48,3.98,7.04,7.09,12.96,7.09s12.56-3.66,12.56-10.91c0-7.88-6.64-9.87-13.84-12.11-7.52-2.31-15.21-5.57-15.21-15.77,0-10.91,9.76-15.53,18.08-15.53,7.6,0,13.29,3.19,16,6.85l-4.56,3.66Z"/>
      <polygon class="cls-1" points="818.93 18.42 824.69 18.42 824.69 42.87 855.58 42.87 855.58 18.42 861.34 18.42 861.34 74.8 855.58 74.8 855.58 48.12 824.69 48.12 824.69 74.8 818.93 74.8 818.93 18.42"/>
    </g>
  </g>
</svg>