<?xml version="1.0" encoding="UTF-8"?>
<svg id="Layer_2" data-name="Layer 2" xmlns="http://www.w3.org/2000/svg" viewBox="0 0 389.25 176.91">
  <defs>
    <style>
      .cls-1 {
        fill: #231f20;
      }

      .cls-2 {
        fill: #ffc63e;
      }

      .cls-3 {
        fill: #6f559b;
      }
    </style>
  </defs>
  <g id="Layer_1-2" data-name="Layer 1">
    <g>
      <path class="cls-3" d="M175.37,88.41c0,48.88-39.62,88.5-88.5,88.5C-26.42,176.71-30.04,5.33,82.71,0v87.85h92.65c0,.18,0,.37,0,.55"/>
      <polygon class="cls-2" points="289.36 3.88 189.46 176.9 389.25 176.9 289.36 3.88"/>
      <polygon class="cls-1" points="373.91 .6 373.91 2.25 369.24 2.25 369.24 14.46 367.33 14.46 367.33 2.25 362.67 2.25 362.67 .6 373.91 .6"/>
      <path class="cls-1" d="M375.58.6h2.69l3.98,11.72,3.95-11.72h2.66v13.86h-1.78c0-2.61,0-9.12.04-11.69l-3.95,11.69h-1.86l-3.98-11.69c.05,2.39.06,9.21.05,11.69h-1.79V.6Z"/>
    </g>
  </g>
</svg>